<svg xmlns="http://www.w3.org/2000/svg" width="47" height="30" fill="none" viewBox="0 0 47 30"><g clip-path="url(#a)"><path fill="#fff" d="M7.726 4h29.548C39.333 4 41 5.734 41 7.876v14.248C41 24.266 39.333 26 37.274 26H7.726C5.667 26 4 24.266 4 22.124V7.876C4 5.734 5.667 4 7.726 4"/><path fill="#01022e" d="M7.5 20.333v-1.082c.022-.396.148-.779.366-1.104.217-.326.522-.59.879-.753a14.13 14.13 0 0 1 10.639 0 2.17 2.17 0 0 1 1.245 1.857v1.082c0 .29-.057.577-.166.845-.109.269-.27.51-.474.717a2.16 2.16 0 0 1-1.546.647h-8.74a2.18 2.18 0 0 1-2.02-1.364 2.3 2.3 0 0 1-.166-.845zM14.06 7.46c-.723 0-1.428.216-2.024.62-.6.405-1.067.982-1.345 1.655a3.75 3.75 0 0 0-.21 2.13c.14.712.488 1.372.998 1.887a3.62 3.62 0 0 0 3.974.796 3.66 3.66 0 0 0 1.637-1.355 3.72 3.72 0 0 0-.453-4.65A3.62 3.62 0 0 0 14.06 7.46m24.071 1.416H22.935a.44.44 0 0 1-.435-.44c0-.242.196-.44.435-.44h15.196a.44.44 0 0 1 0 .88m0 2.983H22.935a.44.44 0 0 1-.435-.44c0-.242.196-.44.435-.44h15.196a.44.44 0 0 1 0 .88m0 7.021H22.935a.44.44 0 0 1-.435-.44c0-.242.196-.44.435-.44h15.196a.44.44 0 0 1 0 .88m-6.268-4.043h-8.928a.44.44 0 0 1-.435-.44c0-.242.196-.44.435-.44h8.933c.239 0 .435.198.435.44s-.196.44-.435.44zm0 7.022h-8.928a.44.44 0 0 1-.435-.44c0-.242.196-.44.435-.44h8.933a.44.44 0 0 1 0 .88z"/></g><rect width="44.571" height="28.5" x=".75" y=".75" stroke="#fff" stroke-width="1.5" rx="4.25"/><defs><clipPath id="a"><path fill="#fff" d="M4 4h37v22H4z"/></clipPath></defs></svg>