<svg width="30" height="30" viewBox="0 0 30 30" fill="none" xmlns="http://www.w3.org/2000/svg">
<rect x="25.9412" y="1" width="28" height="21.4118" rx="4" transform="rotate(90 25.9412 1)" fill="#01022E"/>
<path d="M7 24.2352C7 23.6829 7.44772 23.2352 8 23.2352L13.4118 23.2352C13.964 23.2352 14.4118 23.6829 14.4118 24.2352L14.4118 26.5293L7 26.5293L7 24.2352Z" fill="white"/>
<rect x="7" y="19.9412" width="16.4706" height="1.64706" rx="0.82353" fill="white"/>
<path d="M16.0588 24.2352C16.0588 23.6829 16.5066 23.2352 17.0588 23.2352L22.4706 23.2352C23.0229 23.2352 23.4706 23.6829 23.4706 24.2352L23.4706 26.5293L16.0588 26.5293L16.0588 24.2352Z" fill="white"/>
<rect x="13.5884" y="6.76504" width="9.88235" height="1.64706" rx="0.82353" fill="white"/>
<rect x="7" y="3.4708" width="4.94118" height="4.94118" rx="1" fill="white"/>
<rect x="13.5884" y="3.4708" width="6.58824" height="1.64706" rx="0.82353" fill="white"/>
<rect x="13.5881" y="15" width="4.94118" height="1.64706" rx="0.82353" fill="white"/>
<rect x="13.5881" y="11.706" width="9.88235" height="1.64706" rx="0.82353" fill="white"/>
<path d="M11.9409 15.1102C11.9409 15.9387 11.3854 16.5348 10.3455 16.7329C10.1627 16.7678 10.0213 16.9215 10.0213 17.1076C10.0213 17.3081 9.85869 17.4707 9.65812 17.4707H9.42544C9.22679 17.4707 9.06575 17.3097 9.06575 17.111C9.06575 16.9239 8.922 16.7697 8.73697 16.742C8.15923 16.6556 7.69194 16.4761 7.31093 16.2296C7.12938 16.1122 7.10714 15.864 7.24222 15.6952L7.52364 15.3434C7.66534 15.1663 7.92493 15.1449 8.11775 15.2643C8.51455 15.5101 9.02728 15.687 9.62529 15.687C10.1246 15.687 10.4431 15.4973 10.4431 15.2544C10.4431 14.966 10.0643 14.8521 9.45313 14.7383C8.51482 14.5713 7.18914 14.3588 7.18914 13.1595C7.18914 12.4672 7.73683 11.8491 8.73074 11.6464C8.91923 11.608 9.06575 11.4495 9.06575 11.2572C9.06575 11.0502 9.2335 10.8825 9.44042 10.8825H9.64094C9.85099 10.8825 10.0213 11.0528 10.0213 11.2628C10.0213 11.4568 10.1677 11.6176 10.3581 11.6545C10.7561 11.7315 11.1229 11.8644 11.4473 12.0466C11.6484 12.1595 11.6764 12.427 11.5262 12.602L11.2425 12.9329C11.1069 13.091 10.8737 13.116 10.689 13.0199C10.2647 12.7993 9.7794 12.6889 9.37565 12.6889C8.88498 12.6889 8.6956 12.8635 8.6956 13.0836C8.6956 13.3493 9.04854 13.4404 9.68555 13.5466C10.6325 13.7212 11.9409 13.9641 11.9409 15.1102Z" fill="white"/>
</svg>
